<?xml version="1.0" encoding="UTF-8"?>
<svg version="1.1" xmlns="http://www.w3.org/2000/svg" width="100" height="100">
<path d="M0 0 C0.495 1.98 0.495 1.98 1 4 C6.94 4 12.88 4 19 4 C19.33 2.68 19.66 1.36 20 0 C28.85664359 -0.58076351 35.74392504 1.47788151 43.375 6 C53.30397901 17.34740458 56.96370574 38.47495967 56.5234375 53.1640625 C55.98148657 57.13567304 55.56501463 58.56040469 52.6875 61.25 C45.80467263 65.88313998 38.22721043 68.3254066 29.97265625 68.7265625 C29.32167969 68.48679687 28.67070313 68.24703125 28 68 C27.54496094 67.01257813 27.08992188 66.02515625 26.62109375 65.0078125 C24.33006666 61.76481126 24.33006666 61.76481126 21.12524414 61.41064453 C17.40042658 61.18981068 13.73060377 61.18257945 10 61.25 C8.71609375 61.22679687 7.4321875 61.20359375 6.109375 61.1796875 C2.62112182 61.2015803 -0.58191728 61.29960652 -4 62 C-6.7092102 64.81334625 -6.7092102 64.81334625 -8 68 C-12.92031276 69.93439716 -18.44949733 67.67372095 -23.125 65.875 C-25.10063754 64.95286739 -27.0607907 63.9964635 -29 63 C-29.76570313 62.63519531 -30.53140625 62.27039063 -31.3203125 61.89453125 C-33.6485402 60.43821068 -34.69900425 59.43440561 -36 57 C-38.5083228 41.98514463 -33.79183194 20.66103442 -25.0859375 8.27734375 C-22.12944348 5.04956095 -18.97520371 3.68151892 -15 2 C-14.030625 1.5875 -13.06125 1.175 -12.0625 0.75 C-8.00221579 -0.24435532 -4.15756096 -0.16630244 0 0 Z M-14 7 C-16.67676547 8.37249963 -16.67676547 8.37249963 -19 10 C-18.01 10.495 -18.01 10.495 -17 11 C-14.96855359 10.06553465 -12.96466413 9.06775224 -11 8 C-11.99 7.67 -12.98 7.34 -14 7 Z M31 7 C33.62198774 9.15377564 35.64404172 10.40072174 39 11 C36.60490662 8.10067643 34.68754757 7.49831724 31 7 Z M-12 13 C-14.32136612 13.72468033 -16.65362843 14.36008048 -19 15 C-19.33 13.68 -19.66 12.36 -20 11 C-28.10405072 21.65103809 -31.61268745 38.13275444 -31.46875 51.375 C-30.78757144 55.18959992 -29.17516643 56.67690772 -26.0703125 58.8515625 C-21.20237025 61.55189273 -16.67561493 63.5320889 -11 63 C-10.34 61.68 -9.68 60.36 -9 59 C-10.62249941 58.16180842 -12.24808497 57.3295884 -13.875 56.5 C-14.77992187 56.0359375 -15.68484375 55.571875 -16.6171875 55.09375 C-18.86596859 53.86094411 -18.86596859 53.86094411 -21 54 C-21 52.35 -21 50.7 -21 49 C-20.030625 49.4125 -19.06125 49.825 -18.0625 50.25 C-17.4128125 50.52199219 -16.763125 50.79398438 -16.09375 51.07421875 C-14 52 -14 52 -12.09375 53.01953125 C-0.95145368 58.74067186 13.06327507 59.25674111 25 56 C28.27996487 54.60884248 31.36941527 53.08069747 34.4765625 51.33984375 C36.70461059 50.15683989 38.53911 49.4679157 41 49 C41 50.65 41 52.3 41 54 C40.319375 54.268125 39.63875 54.53625 38.9375 54.8125 C35.60289191 56.16053306 32.30256763 57.57536298 29 59 C29.66 60.32 30.32 61.64 31 63 C38.35491146 62.47464918 43.30583669 60.30885207 49.5 56.4375 C53.8397164 49.38546084 50.51146504 39.30817724 48.77758789 31.72216797 C46.22387429 19.89541529 46.22387429 19.89541529 39 11 C39 12.32 39 13.64 39 15 C38.46632813 14.81824219 37.93265625 14.63648438 37.3828125 14.44921875 C35.78865302 13.91139678 34.19056872 13.38514165 32.58984375 12.8671875 C31.00308127 12.33587337 29.42780919 11.76606564 27.87890625 11.1328125 C15.20803006 6.38970377 0.21854386 7.86154335 -12 13 Z " fill="#191919" transform="translate(40,14)"/>
<path d="M0 0 C3.65050264 0.88318612 4.94055216 2.348519 6.9375 5.46875 C7.9526866 10.54468299 7.74739899 14.20328283 4.9375 18.59375 C1.62360247 20.66493595 -0.28025808 21.22876833 -4.125 20.9375 C-7.77550264 20.05431388 -9.06555216 18.588981 -11.0625 15.46875 C-12.0776866 10.39281701 -11.87239899 6.73421717 -9.0625 2.34375 C-5.74860247 0.27256405 -3.84474192 -0.29126833 0 0 Z M-4.0625 5.46875 C-6.37813087 7.35375271 -6.37813087 7.35375271 -6.3125 10.46875 C-6.37813087 13.58374729 -6.37813087 13.58374729 -4.0625 15.46875 C-0.75566534 15.17891731 -0.75566534 15.17891731 1.9375 13.46875 C2.18755386 10.51057893 2.18755386 10.51057893 1.9375 7.46875 C1.2775 6.80875 0.6175 6.14875 -0.0625 5.46875 C-1.3825 5.46875 -2.7025 5.46875 -4.0625 5.46875 Z " fill="#191919" transform="translate(65.0625,41.53125)"/>
<path d="M0 0 C3.65050264 0.88318612 4.94055216 2.348519 6.9375 5.46875 C7.9526866 10.54468299 7.74739899 14.20328283 4.9375 18.59375 C1.62360247 20.66493595 -0.28025808 21.22876833 -4.125 20.9375 C-7.77550264 20.05431388 -9.06555216 18.588981 -11.0625 15.46875 C-12.0776866 10.39281701 -11.87239899 6.73421717 -9.0625 2.34375 C-5.74860247 0.27256405 -3.84474192 -0.29126833 0 0 Z M-4.0625 5.46875 C-6.37813087 7.35375271 -6.37813087 7.35375271 -6.3125 10.46875 C-6.37813087 13.58374729 -6.37813087 13.58374729 -4.0625 15.46875 C-0.75566534 15.17891731 -0.75566534 15.17891731 1.9375 13.46875 C2.18755386 10.51057893 2.18755386 10.51057893 1.9375 7.46875 C1.2775 6.80875 0.6175 6.14875 -0.0625 5.46875 C-1.3825 5.46875 -2.7025 5.46875 -4.0625 5.46875 Z " fill="#191919" transform="translate(39.0625,41.53125)"/>
</svg>
